<?xml version="1.0" encoding="utf-8"?>
<!-- Generator: Adobe Illustrator 21.1.0, SVG Export Plug-In . SVG Version: 6.00 Build 0)  -->
<svg version="1.1" id="Layer_1" xmlns="http://www.w3.org/2000/svg" xmlns:xlink="http://www.w3.org/1999/xlink" x="0px" y="0px"
	 width="539.4px" height="158px" viewBox="0 0 539.4 158" style="enable-background:new 0 0 539.4 158;" xml:space="preserve">
<style type="text/css">
	.st0{fill:#868e96;}
	.circle{fill:#5E6EC0;}
</style>
<path class="circle" d="M79,0C35.4,0,0,35.4,0,79s35.4,79,79,79s79-35.4,79-79S122.6,0,79,0z M79,125.5c-25.6,0-46.5-20.8-46.5-46.5
	c0-25.6,20.8-46.5,46.5-46.5s46.5,20.8,46.5,46.5C125.5,104.6,104.6,125.5,79,125.5z"/>
<g>
	<path class="st0" d="M198.3,94.3h17.6c0.5,0,1,0.4,1,1c0.2,3.5,1.8,6.3,4.8,8.3c3.2,2.2,7.5,3.3,12.9,3.3c5.6,0,10.1-1.1,13.4-3.2
		c3.3-2.1,4.9-5.1,4.9-8.8c0-2.5-1-4.6-3-6.1c-2-1.6-4.6-2.7-7.8-3.5s-6.7-1.5-10.6-2.1c-3.9-0.6-7.7-1.4-11.5-2.5
		c-3.8-1-7.3-2.4-10.5-4.2c-3.2-1.7-5.8-4.3-7.8-7.8c-2-3.4-3-7.6-3-12.6c0-8,3.3-14.6,9.8-19.7c6.6-5.2,15.4-7.8,26.4-7.8
		c10.9,0,19.5,2.4,25.8,7.1c6.1,4.5,9.2,10.5,9.5,17.8c0,0.6-0.4,1-1,1h-17.6c-0.5,0-1-0.4-1-0.9c-0.2-3.1-1.7-5.6-4.3-7.4
		c-2.9-2-6.7-3-11.4-3c-4.9,0-8.8,1-11.8,2.9s-4.5,4.6-4.5,7.9c0,2.5,1,4.6,3,6.2c2,1.6,4.6,2.8,7.8,3.5c3.2,0.7,6.8,1.4,10.6,2
		c3.9,0.6,7.8,1.4,11.7,2.5s7.5,2.4,10.7,4.2c3.2,1.7,5.8,4.3,7.8,7.7c2,3.4,3,7.5,3,12.4c0,8.8-3.4,15.8-10.2,21
		c-6.8,5.3-16.3,7.9-28.5,7.9c-12.1,0-21.3-2.4-27.7-7.1c-6.1-4.5-9.3-10.9-9.6-19C197.3,94.8,197.7,94.3,198.3,94.3z"/>
	<path class="st0" d="M300.7,119.2l-22.5-61.6c-0.2-0.7,0.2-1.3,0.9-1.3H298c0.4,0,0.8,0.3,1,0.7l14,44.3h0.5l14-44.3
		c0.1-0.4,0.5-0.7,1-0.7h17.7c0.7,0,1.2,0.7,0.9,1.3l-24.2,69.2c-5.2,15.2-14.3,22.8-27.2,22.8h-7.5c-0.6,0-1-0.4-1-1v-13
		c0-0.6,0.4-1,1-1h2.9c7.6,0,12.6-3.7,14.9-11.2l0.7-2.2c0.2-0.6-0.3-1.3-1-1.3h-4C301.3,119.8,300.9,119.6,300.7,119.2z"/>
	<path class="st0" d="M356.9,118.8V25.5c0-0.6,0.4-1,1-1h17.3c0.6,0,1,0.4,1,1v93.4c0,0.6-0.4,1-1,1h-17.3
		C357.3,119.8,356.9,119.4,356.9,118.8z"/>
	<path class="st0" d="M413.2,132.5v15c0,0.6-0.4,1-1,1h-17.3c-0.6,0-1-0.4-1-1V57.2c0-0.6,0.4-1,1-1h16.5c0.6,0,1,0.4,1,1v7.9h0.5
		c3.6-6.9,10.5-10.4,20.6-10.4c8.3,0,15.1,2.9,20.7,8.6c5.5,5.7,8.3,13.8,8.3,24.2c0,10.5-2.8,18.8-8.5,24.8s-12.8,9.1-21.4,9.1
		c-9.4,0-15.9-3.5-19.5-10.4h-0.5C412.9,116.5,413.2,123.7,413.2,132.5z M442.5,87.5c0-5.7-1.3-10.3-3.8-13.6c-2.6-3.3-6.1-5-10.6-5
		c-4.4,0-8,1.7-10.6,5c-2.7,3.3-4.1,7.8-4.2,13.4V88c0,5.7,1.3,10.4,4,13.9s6.3,5.3,10.8,5.3c4.4,0,7.9-1.8,10.6-5.5
		C441.2,98.1,442.5,93.3,442.5,87.5z"/>
	<path class="st0" d="M476.1,118.8V25.5c0-0.6,0.4-1,1-1h17.3c0.6,0,1,0.4,1,1v18.4c0,8.5-0.3,15.6-0.8,21.4h0.5
		c3.7-7,10.2-10.6,19.4-10.6c7.3,0,13.3,2.1,17.9,6.4c4.6,4.3,7,11,7,20.3v37.4c0,0.6-0.4,1-1,1H521c-0.6,0-1-0.4-1-1V83.6
		c0-9.6-3.8-14.3-11.3-14.3c-3.9,0-7.1,1.5-9.6,4.5s-3.7,7.1-3.7,12.2v32.9c0,0.6-0.4,1-1,1h-17.3
		C476.5,119.8,476.1,119.4,476.1,118.8z"/>
</g>
</svg>
